<?xml version="1.0" standalone="no"?>
<!DOCTYPE svg PUBLIC "-//W3C//DTD SVG 20010904//EN"
 "http://www.w3.org/TR/2001/REC-SVG-20010904/DTD/svg10.dtd">
<svg version="1.0" xmlns="http://www.w3.org/2000/svg"
 width="512.000000pt" height="512.000000pt" viewBox="0 0 512.000000 512.000000"
 preserveAspectRatio="xMidYMid meet">
<metadata>
Created by potrace 1.14, written by Peter Selinger 2001-2017
</metadata>
<g transform="translate(0.000000,512.000000) scale(0.100000,-0.100000)"
fill="#000000" stroke="none">
<path d="M745 4648 c-138 -41 -184 -64 -271 -140 -90 -78 -164 -205 -189 -320
-3 -16 -12 -28 -21 -28 -28 0 -112 -49 -154 -91 -23 -23 -54 -68 -69 -98 -22
-48 -26 -69 -26 -151 1 -83 4 -101 27 -145 47 -89 116 -150 203 -181 43 -15
90 -18 333 -19 262 -2 285 0 307 17 13 10 25 28 27 41 6 31 -18 74 -44 83 -13
4 -144 8 -293 9 -294 1 -299 2 -359 62 -112 111 -49 300 111 333 32 7 66 19
75 27 10 9 21 45 28 86 17 99 54 171 127 245 72 73 143 109 244 125 187 29
377 -71 461 -240 37 -76 44 -82 99 -89 135 -17 220 -90 253 -218 18 -67 35
-96 61 -98 85 -6 756 -3 776 4 14 5 31 19 36 31 6 12 17 38 26 59 59 136 265
121 309 -24 22 -74 18 -73 322 -74 149 -1 279 3 289 8 9 5 30 37 46 72 45 99
132 138 223 99 79 -34 105 -22 148 71 56 122 152 187 285 194 127 6 224 -40
294 -142 37 -53 63 -141 60 -199 -3 -46 20 -96 44 -98 6 -1 89 -3 184 -4 143
-1 176 -4 198 -19 37 -24 59 -76 51 -119 -7 -40 -54 -86 -89 -88 -12 -1 -857
-2 -1877 -3 -2009 -2 -1891 1 -1905 -55 -8 -32 11 -76 38 -88 27 -12 3736 -10
3787 1 72 17 145 81 179 156 15 33 19 62 17 110 -3 78 -28 131 -85 183 -66 60
-98 69 -254 70 -129 2 -138 3 -142 22 -28 140 -69 219 -154 297 -54 49 -140
99 -196 112 -58 15 -70 16 -135 17 -156 1 -298 -73 -389 -200 l-39 -55 -83 -1
c-122 -2 -211 -50 -271 -145 l-29 -45 -190 0 -191 -1 -35 53 c-81 123 -252
174 -386 115 -54 -24 -127 -88 -151 -135 l-18 -33 -302 0 -301 0 -31 67 c-56
118 -153 202 -273 235 -57 16 -63 21 -90 68 -66 117 -215 228 -358 266 -67 18
-219 23 -268 8z"/>
<path d="M1923 3380 c-46 -19 -55 -85 -16 -122 21 -20 29 -20 460 -20 l438 0
23 28 c18 21 22 34 18 58 -13 63 5 61 -469 63 -238 1 -442 -2 -454 -7z"/>
<path d="M2973 3380 c-47 -19 -57 -83 -19 -119 22 -21 34 -23 115 -23 49 0 99
6 110 12 53 28 51 103 -2 125 -37 14 -171 18 -204 5z"/>
<path d="M4150 3285 c-168 -33 -332 -151 -404 -292 -12 -25 -26 -35 -59 -43
-132 -33 -240 -124 -293 -244 l-28 -66 -74 0 c-49 0 -74 4 -76 13 -31 107 -92
184 -181 227 -97 48 -258 27 -332 -41 -18 -18 -28 -20 -65 -13 -88 16 -155 7
-226 -30 -39 -20 -108 -89 -128 -128 -13 -25 -20 -28 -67 -28 -64 0 -141 -34
-185 -81 -123 -131 -85 -341 76 -421 l47 -23 895 -3 c601 -2 905 0 923 7 53
20 61 95 14 126 -20 13 -143 15 -914 17 -889 3 -892 3 -920 24 -34 25 -54 87
-41 125 19 57 51 73 151 79 51 3 98 9 105 13 7 5 23 32 36 60 48 108 143 150
232 104 28 -14 56 -21 80 -18 7 0 34 23 62 50 37 36 61 51 90 56 44 7 105 -6
140 -30 34 -24 62 -88 62 -140 0 -35 6 -52 25 -70 24 -25 27 -25 187 -25 203
0 207 2 229 92 9 36 29 85 45 109 36 54 120 106 183 114 70 9 93 25 122 85
118 245 423 329 648 179 103 -69 166 -168 191 -302 15 -80 34 -103 93 -109
121 -14 204 -140 167 -254 -20 -61 -49 -94 -104 -120 -50 -23 -58 -24 -331
-24 -299 -1 -305 -2 -323 -51 -12 -31 0 -64 32 -84 22 -14 61 -16 323 -13
l298 3 67 33 c36 18 82 51 103 73 168 186 94 492 -137 568 -33 11 -39 18 -53
69 -88 300 -385 485 -685 427z"/>
<path d="M895 3068 c-99 -13 -221 -86 -271 -164 -14 -20 -24 -23 -72 -23 -133
1 -243 -73 -299 -198 -13 -30 -27 -52 -31 -49 -14 8 -96 -34 -130 -67 -58 -56
-77 -102 -77 -193 0 -72 3 -86 30 -130 32 -52 105 -108 159 -123 17 -4 321 -8
676 -7 730 1 682 -4 767 83 123 127 83 335 -81 420 -19 10 -66 18 -122 21
l-91 5 -5 68 c-16 219 -227 386 -453 357z m139 -160 c59 -18 138 -99 156 -161
14 -52 15 -83 4 -137 -11 -55 -7 -73 21 -97 24 -21 36 -23 146 -23 134 0 168
-11 194 -60 34 -66 5 -140 -64 -160 -16 -4 -301 -8 -633 -8 -661 0 -653 -1
-683 59 -44 83 14 169 113 169 52 0 92 34 92 77 1 44 34 108 71 134 27 19 46
24 94 23 33 0 73 -3 90 -6 40 -7 62 8 90 62 59 114 182 165 309 128z"/>
<path d="M4234 3015 c-44 -44 -17 -125 42 -125 68 0 137 -60 149 -129 12 -74
76 -101 125 -53 31 31 32 54 8 132 -32 103 -136 185 -249 194 -44 4 -55 1 -75
-19z"/>
<path d="M705 1851 c-208 -58 -369 -224 -425 -438 -7 -27 -17 -43 -26 -43 -29
0 -110 -49 -154 -92 -23 -23 -55 -68 -69 -98 -22 -47 -26 -68 -25 -145 0 -76
4 -99 27 -146 52 -108 153 -182 269 -197 48 -6 2002 -9 2066 -3 23 2 52 41 52
70 0 16 -9 39 -19 52 l-19 24 -1039 1 c-726 0 -1046 4 -1064 12 -106 44 -157
173 -108 272 33 67 83 102 165 114 55 9 74 32 84 106 13 94 67 196 136 260 67
60 112 85 197 106 196 51 407 -48 502 -235 36 -73 47 -81 110 -88 64 -7 138
-46 176 -93 19 -23 43 -53 55 -68 23 -28 72 -35 98 -13 9 7 27 38 41 69 46 99
128 154 233 153 67 0 118 -19 168 -63 39 -34 84 -117 84 -154 0 -57 84 -90
128 -51 61 55 170 48 227 -15 16 -19 38 -44 47 -56 21 -26 -10 -24 372 -26
337 -1 361 2 372 53 14 62 22 77 53 93 29 15 37 15 73 2 22 -8 49 -14 59 -14
25 0 55 35 72 85 48 139 174 228 321 227 107 0 212 -57 271 -145 19 -28 35
-57 35 -63 0 -6 10 -20 23 -32 20 -19 34 -22 89 -21 95 2 139 -25 179 -108 16
-34 34 -65 40 -69 6 -3 75 -7 153 -8 117 -2 147 -6 173 -21 64 -37 73 -117 19
-171 -19 -19 -42 -34 -53 -35 -10 0 -513 -2 -1118 -4 -605 -1 -1103 -3 -1107
-4 -5 0 -17 -10 -28 -21 -26 -26 -26 -71 1 -101 l20 -24 1112 0 c1180 0 1173
0 1241 47 77 55 110 120 111 218 0 87 -17 130 -74 187 -60 60 -109 76 -239 78
l-112 1 -27 39 c-61 89 -133 133 -243 149 -25 3 -47 11 -49 17 -10 32 -94 119
-149 156 -195 131 -449 108 -612 -56 -31 -31 -67 -76 -81 -101 -23 -43 -27
-45 -73 -48 -65 -3 -134 -39 -172 -90 -18 -22 -34 -47 -36 -54 -4 -10 -61 -13
-258 -13 l-254 -1 -44 43 c-81 77 -182 109 -284 88 l-55 -11 -22 41 c-45 84
-142 163 -236 190 -144 42 -292 5 -404 -102 -24 -24 -46 -43 -49 -43 -2 0 -18
12 -36 27 -35 30 -117 68 -167 79 -28 5 -43 19 -84 83 -111 166 -289 260 -492
259 -49 -1 -114 -8 -148 -17z"/>
<path d="M1154 592 c-51 -8 -65 -14 -80 -37 -22 -34 -10 -81 24 -99 22 -11
115 -13 475 -12 l449 1 19 24 c25 31 24 64 -3 96 l-23 26 -421 2 c-231 1 -429
1 -440 -1z"/>
<path d="M746 567 c-21 -21 -23 -32 -17 -82 3 -27 57 -43 134 -42 71 2 81 5
99 27 15 18 18 34 14 58 -8 51 -29 61 -124 62 -74 0 -85 -3 -106 -23z"/>
</g>
</svg>
