<?xml version="1.0" encoding="UTF-8" standalone="no"?>
<svg
   xmlns:dc="http://purl.org/dc/elements/1.1/"
   xmlns:cc="http://creativecommons.org/ns#"
   xmlns:rdf="http://www.w3.org/1999/02/22-rdf-syntax-ns#"
   xmlns:svg="http://www.w3.org/2000/svg"
   xmlns="http://www.w3.org/2000/svg"
   xmlns:sodipodi="http://sodipodi.sourceforge.net/DTD/sodipodi-0.dtd"
   xmlns:inkscape="http://www.inkscape.org/namespaces/inkscape"
   width="1000"
   height="504.64661"
   viewBox="0 0 1000 504.64661"
   version="1.1"
   id="svg8"
   sodipodi:docname="636f2026a8142815ba8593da_icon.svg"
   style="fill:none"
   inkscape:version="0.92.4 (5da689c313, 2019-01-14)">
  <metadata
     id="metadata14">
    <rdf:RDF>
      <cc:Work
         rdf:about="">
        <dc:format>image/svg+xml</dc:format>
        <dc:type
           rdf:resource="http://purl.org/dc/dcmitype/StillImage" />
        <dc:title></dc:title>
      </cc:Work>
    </rdf:RDF>
  </metadata>
  <defs
     id="defs12" />
  <sodipodi:namedview
     pagecolor="#ffffff"
     bordercolor="#111111"
     borderopacity="1"
     objecttolerance="10"
     gridtolerance="10"
     guidetolerance="10"
     inkscape:pageopacity="0"
     inkscape:pageshadow="2"
     inkscape:window-width="1920"
     inkscape:window-height="1017"
     id="namedview10"
     showgrid="false"
     fit-margin-top="0"
     fit-margin-left="0"
     fit-margin-right="0"
     fit-margin-bottom="0"
     inkscape:zoom="0.88656191"
     inkscape:cx="729.95002"
     inkscape:cy="194.35702"
     inkscape:window-x="1912"
     inkscape:window-y="-8"
     inkscape:window-maximized="1"
     inkscape:current-layer="svg8" />
  <path
     d="M 145.78977,498.78349 0,5.67492 H 135.698 L 221.65742,360.27398 315.18736,5.67492 H 451.24549 L 544.77389,360.27398 630.73408,5.67492 H 766.43285 L 619.02009,498.78349 H 474.49302 L 383.30588,142.67042 290.3173,498.78349 Z"
     id="path2"
     inkscape:connector-curvature="0"
     style="fill:#000000;stroke-width:15.29241371" />
  <path
     d="m 921.06821,504.6466 c 43.59255,0 78.93179,-37.10551 78.93179,-82.87877 0,-45.77172 -35.33924,-82.87876 -78.93179,-82.87876 -43.59409,0 -78.93333,37.10704 -78.93333,82.87876 0,45.77326 35.33924,82.87877 78.93333,82.87877 z"
     id="path4"
     inkscape:connector-curvature="0"
     style="fill:#ea2c00;stroke-width:15.29241371" />
  <path
     d="M 921.06821,165.75753 C 964.66076,165.75753 1000,128.65095 1000,82.87846 1000,37.10597 964.66076,0 921.06821,0 c -43.59409,0 -78.93333,37.10597 -78.93333,82.87846 0,45.77249 35.33924,82.87907 78.93333,82.87907 z"
     id="path6"
     inkscape:connector-curvature="0"
     style="fill:#ea2c00;stroke-width:15.29241371" />
</svg>
